<?xml version="1.0" encoding="UTF-8"?>
<svg id="a" data-name="Layer 1" xmlns="http://www.w3.org/2000/svg" width="1000" height="1000" viewBox="0 0 1000 1000">
  <path d="M673.847,823.969h-45.906c-6.844-27.984-18.062-53.047-33.688-75.188-24.75,25.719-53.062,47.859-84.969,66.406s-75.031,27.828-129.391,27.828c-59.578,0-114.844-14.484-165.781-43.453s-91.547-69.406-121.812-121.328c-30.281-51.922-45.406-110.438-45.406-175.547,0-46.219,8.219-90.328,24.656-132.328,16.438-41.984,39.875-78.922,70.312-110.828s66.719-56.969,108.875-75.203c42.156-18.219,88.297-27.344,138.438-27.344,82.672,0,151.031,27.016,205.078,81.047,7.156-13.984,14.156-34.328,21-61.031h43.938l7.812,243.656h-46.875c-8.469-41.344-23.766-78.125-45.891-110.344-22.141-32.219-48.422-56.891-78.859-73.984s-62.266-25.641-95.469-25.641c-37.109,0-70.469,10.188-100.094,30.531s-52.828,51.359-69.578,93.016c-16.766,41.672-25.141,93.594-25.141,155.75,0,60.562,6.984,110.938,20.984,151.141s31.328,70.562,52,91.062,41.422,34.422,62.266,41.734c20.828,7.328,40.359,10.984,58.594,10.984,40.031,0,76.094-10.734,108.156-32.219s58.344-48.578,78.844-81.297,34.188-65.188,41.031-97.422h46.875v250Z"/>
  <path d="M953.106,356.537c0,27.328-1.664,50.342-4.982,69.032-3.322,18.695-8.162,34.543-14.518,47.54-6.36,13.001-14.092,24.624-23.201,34.872-24.294,27.328-53.046,40.992-86.254,40.992-14.233,0-28.85-3.038-43.839-9.109-14.994-6.071-28.942-16.177-41.847-30.317-12.907-14.136-23.342-33.4-31.312-57.788-7.971-24.383-11.957-53.847-11.957-88.389,0-31.122,1.753-57.169,5.267-78.141,3.51-20.968,7.638-36.673,12.384-47.113,4.741-10.435,10.719-20.874,17.934-31.313,23.721-33.208,54.843-49.817,93.371-49.817,39.471,0,70.598,16.608,93.371,49.817,10.435,14.233,18.975,32.265,25.62,54.087,6.641,21.826,9.964,53.709,9.964,95.648ZM876.53,353.121v-37.576c0-28.084-1.094-51.049-3.273-68.89-2.185-17.836-7.117-32.639-14.803-44.408-7.687-11.765-19.122-17.649-34.303-17.649-16.133,0-27.946,6.36-35.441,19.073-7.499,12.717-12.196,30.366-14.091,52.948-1.899,22.586-2.847,54.754-2.847,96.502,0,40.423.947,71.977,2.847,94.652,1.895,22.68,6.592,40.614,14.091,53.803,7.495,13.192,19.309,19.784,35.441,19.784,11.956,0,21.635-3.843,29.036-11.529,7.401-7.686,12.712-18.169,15.941-31.456,3.225-13.282,5.267-27.328,6.12-42.131.854-14.803,1.281-35.107,1.281-60.919v-22.204Z"/>
</svg>